Coordinates
version=1
nRows=11
nColumns=40
inDegrees=yes

Units are S.I. units (second, meters, Newtons, ...)
If the header above contains a line with 'inDegrees', this indicates whether rotational values are in degrees (yes) or radians (no).

endheader
time	pelvis_tilt	pelvis_list	pelvis_rotation	pelvis_tx	pelvis_ty	pelvis_tz	hip_flexion_r	hip_adduction_r	hip_rotation_r	knee_angle_r	knee_angle_r_beta	ankle_angle_r	subtalar_angle_r	mtp_angle_r	hip_flexion_l	hip_adduction_l	hip_rotation_l	knee_angle_l	knee_angle_l_beta	ankle_angle_l	subtalar_angle_l	mtp_angle_l	lumbar_extension	lumbar_bending	lumbar_rotation	arm_flex_r	arm_add_r	arm_rot_r	elbow_flex_r	pro_sup_r	wrist_flex_r	wrist_dev_r	arm_flex_l	arm_add_l	arm_rot_l	elbow_flex_l	pro_sup_l	wrist_flex_l	wrist_dev_l
      4.99500000	    -45.51343657	      1.54584227	      4.45843653	      0.04146071	      0.62786924	     -1.11628174	    110.65096034	    -41.23908095	      0.01341892	     80.07819830	      1.39762822	     10.85454495	     -3.83937695	      0.00000000	    103.71418685	    -35.68469176	     -8.16027710	     70.92939593	      1.23795150	      5.45829954	      4.76185795	      0.00000000	      0.00000000	      0.00000000	      0.00000000	     44.99942853	    -15.00000339	     44.99942853	     75.00017585	     45.00000026	      0.00000000	      0.00000000	     44.99942853	    -15.00000339	     44.99942853	     75.00017585	     45.00000026	      0.00000000	      0.00000000
      5.00000000	    -45.27389047	      1.61346164	      4.52577004	      0.04184009	      0.63013633	     -1.11645335	    110.13467577	    -41.36659131	     -0.19688018	     79.75703364	      1.39202284	     10.78773922	     -3.75997085	      0.00000000	    103.06294340	    -35.62848901	     -8.56459941	     70.57375170	      1.23174433	      5.35387298	      4.75280149	      0.00000000	      0.00000000	      0.00000000	      0.00000000	     44.99943008	    -15.00000337	     44.99943008	     75.00017585	     45.00000026	      0.00000000	      0.00000000	     44.99943008	    -15.00000337	     44.99943008	     75.00017585	     45.00000026	      0.00000000	      0.00000000
      5.00500000	    -45.32721622	      1.63267803	      4.51169874	      0.04183397	      0.63155046	     -1.11650171	    109.93041995	    -41.34890049	     -0.38622336	     79.44795270	      1.38662836	     10.71169712	     -3.66911647	      0.00000000	    102.84240616	    -35.62367225	     -8.78004081	     70.27978115	      1.22661358	      5.26702256	      4.80319328	      0.00000000	      0.00000000	      0.00000000	      0.00000000	     44.99943090	    -15.00000336	     44.99943090	     75.00017585	     45.00000026	      0.00000000	      0.00000000	     44.99943090	    -15.00000336	     44.99943090	     75.00017585	     45.00000026	      0.00000000	      0.00000000
      5.01000000	    -45.36435944	      1.63541967	      4.49539371	      0.04197584	      0.63255583	     -1.11659222	    109.79629734	    -41.37462953	     -0.56339896	     79.28712525	      1.38382139	     10.66451603	     -3.63571790	      0.00000000	    102.72207364	    -35.67471652	     -8.96515552	     70.15373962	      1.22441374	      5.23025151	      4.79933861	      0.00000000	      0.00000000	      0.00000000	      0.00000000	     44.99943150	    -15.00000335	     44.99943150	     75.00017585	     45.00000026	      0.00000000	      0.00000000	     44.99943150	    -15.00000335	     44.99943150	     75.00017585	     45.00000026	      0.00000000	      0.00000000
      5.01500000	    -44.97407692	      1.76839608	      4.60481490	      0.04247590	      0.63559731	     -1.11685771	    109.06378252	    -41.54030279	     -0.76312758	     78.81940490	      1.37565813	     10.57072588	     -3.49558672	      0.00000000	    101.72615862	    -35.53365995	     -9.50889293	     69.61823001	      1.21506733	      5.06354936	      4.84064188	      0.00000000	      0.00000000	      0.00000000	      0.00000000	     44.99943332	    -15.00000333	     44.99943332	     75.00017585	     45.00000026	      0.00000000	      0.00000000	     44.99943332	    -15.00000333	     44.99943332	     75.00017585	     45.00000026	      0.00000000	      0.00000000
      5.02000000	    -45.03502362	      1.77652357	      4.58439868	      0.04253224	      0.63665188	     -1.11698294	    108.92804898	    -41.53667255	     -0.93088038	     78.60071143	      1.37184121	     10.51422161	     -3.43111884	      0.00000000	    101.60130027	    -35.55311824	     -9.68276788	     69.44592233	      1.21206000	      5.01883068	      4.86426417	      0.00000000	      0.00000000	      0.00000000	      0.00000000	     44.99943394	    -15.00000333	     44.99943394	     75.00017585	     45.00000026	      0.00000000	      0.00000000	     44.99943394	    -15.00000333	     44.99943394	     75.00017585	     45.00000026	      0.00000000	      0.00000000
      5.02500000	    -44.80124304	      1.87785261	      4.64711717	      0.04290848	      0.63896825	     -1.11720477	    108.41313356	    -41.64558266	     -1.10258521	     78.21724058	      1.36514838	     10.41831938	     -3.32483980	      0.00000000	    100.89992501	    -35.47329877	    -10.10432797	     69.02565889	      1.20472502	      4.84173437	      4.94476888	      0.00000000	      0.00000000	      0.00000000	      0.00000000	     44.99943548	    -15.00000331	     44.99943548	     75.00017585	     45.00000026	      0.00000000	      0.00000000	     44.99943548	    -15.00000331	     44.99943548	     75.00017585	     45.00000026	      0.00000000	      0.00000000
      5.03000000	    -44.81986902	      1.90292272	      4.61837931	      0.04299345	      0.64030868	     -1.11732050	    108.19194778	    -41.63006487	     -1.29141803	     77.93017142	      1.36013808	     10.34599998	     -3.22417985	      0.00000000	    100.65927213	    -35.47684324	    -10.30893240	     68.76769681	      1.20022273	      4.81210337	      4.96165650	      0.00000000	      0.00000000	      0.00000000	      0.00000000	     44.99943645	    -15.00000330	     44.99943645	     75.00017585	     45.00000026	      0.00000000	      0.00000000	     44.99943645	    -15.00000330	     44.99943645	     75.00017585	     45.00000026	      0.00000000	      0.00000000
      5.03500000	    -44.54469599	      1.92400739	      4.40121731	      0.04347709	      0.64221598	     -1.11708784	    107.56589167	    -41.48050808	     -1.67795492	     77.65965972	      1.35541676	     10.15907155	     -3.22429997	      0.00000000	    100.16388615	    -35.73686076	    -10.52817638	     68.58321109	      1.19700285	      4.71368875	      4.76283338	      0.00000000	      0.00000000	      0.00000000	      0.00000000	     44.99943959	    -15.00000327	     44.99943959	     75.00017585	     45.00000026	      0.00000000	      0.00000000	     44.99943959	    -15.00000327	     44.99943959	     75.00017585	     45.00000026	      0.00000000	      0.00000000
      5.04000000	    -44.34588651	      1.93362020	      4.26070970	      0.04386211	      0.64408795	     -1.11707415	    106.98858186	    -41.36686409	     -1.99730523	     77.31456448	      1.34939371	     10.05422109	     -3.23548117	      0.00000000	     99.73003037	    -35.91851944	    -10.80588436	     68.37273580	      1.19332936	      4.60927520	      4.68439531	      0.00000000	      0.00000000	      0.00000000	      0.00000000	     44.99944260	    -15.00000323	     44.99944260	     75.00017585	     45.00000026	      0.00000000	      0.00000000	     44.99944260	    -15.00000323	     44.99944260	     75.00017585	     45.00000026	      0.00000000	      0.00000000
      5.04500000	    -44.32752041	      2.15491435	      4.68413552	      0.04404043	      0.64568066	     -1.11803034	    107.03429519	    -41.83975872	     -1.71726097	     77.05036361	      1.34478253	     10.18248626	     -2.86211702	      0.00000000	     99.10928137	    -35.37042457	    -11.31098065	     67.94573667	      1.18587682	      4.66472422	      5.11767364	      0.00000000	      0.00000000	      0.00000000	      0.00000000	     44.99944612	    -15.00000320	     44.99944612	     75.00017585	     45.00000026	      0.00000000	      0.00000000	     44.99944612	    -15.00000320	     44.99944612	     75.00017585	     45.00000026	      0.00000000	      0.00000000
